<?xml version="1.0" encoding="UTF-8" standalone="no"?>
<!-- Created with Inkscape (http://www.inkscape.org/) -->

<svg
   width="11.222126mm"
   height="10.962972mm"
   viewBox="0 0 11.222126 10.962972"
   version="1.1"
   id="svg1"
   xml:space="preserve"
   xmlns:inkscape="http://www.inkscape.org/namespaces/inkscape"
   xmlns:sodipodi="http://sodipodi.sourceforge.net/DTD/sodipodi-0.dtd"
   xmlns="http://www.w3.org/2000/svg"
   xmlns:svg="http://www.w3.org/2000/svg"><sodipodi:namedview
     id="namedview1"
     pagecolor="#ffffff"
     bordercolor="#000000"
     borderopacity="0.25"
     inkscape:showpageshadow="2"
     inkscape:pageopacity="0.0"
     inkscape:pagecheckerboard="0"
     inkscape:deskcolor="#d1d1d1"
     inkscape:document-units="mm" /><defs
     id="defs1" /><g
     inkscape:label="Camada 1"
     inkscape:groupmode="layer"
     id="layer1"
     transform="translate(-3.2775105,-3.2060963)"><path
       style="fill:#000000"
       d="M 7.1314067,14.163911 C 7.0246569,14.143086 6.5677931,13.95297 6.3105368,13.822319 4.9610726,13.136976 3.8950857,11.836688 3.4780392,10.367245 3.3334728,9.8578732 3.2780361,9.4296362 3.2775165,8.8182502 3.27709,8.3164722 3.2982854,8.0927982 3.3875371,7.6572082 c 0.4155646,-2.028152 1.9895684,-3.704475 3.9942481,-4.253897 1.1456351,-0.313983 2.4561253,-0.250361 3.5353858,0.171637 1.314353,0.513922 2.37184,1.477884 3.004427,2.738712 0.289052,0.57612 0.463964,1.15372 0.552193,1.823471 0.03464,0.262964 0.03441,1.086424 -3.89e-4,1.362237 -0.109912,0.8712518 -0.397934,1.6653088 -0.859413,2.3693438 -0.666255,1.016444 -1.569941,1.757719 -2.670515,2.19057 -0.339573,0.133552 -0.46114,0.141402 -0.566049,0.03655 l -0.07113,-0.07109 -0.01331,-0.993831 c -0.01425,-1.063721 -0.01975,-1.119409 -0.136363,-1.38128 -0.02888,-0.06484 -0.09293,-0.168755 -0.142332,-0.230915 l -0.089828,-0.113018 0.179932,-0.02518 c 0.575202,-0.08051 1.023288,-0.238158 1.409911,-0.49605 0.470176,-0.313625 0.759886,-0.8003478 0.902245,-1.5158008 0.04685,-0.235435 0.06707,-0.896349 0.03391,-1.108171 -0.05653,-0.361138 -0.235203,-0.761574 -0.459151,-1.029054 l -0.08823,-0.105378 0.05401,-0.186007 c 0.09589,-0.330241 0.07033,-0.793341 -0.06456,-1.169471 -0.0428,-0.119359 -0.0566,-0.136647 -0.122587,-0.153659 -0.204172,-0.05263 -0.783607,0.159726 -1.285972,0.471302 -0.125143,0.07762 -0.192128,0.106361 -0.231776,0.09946 -0.03067,-0.0053 -0.156006,-0.03084 -0.2785245,-0.05666 -0.700821,-0.147704 -1.4682711,-0.147704 -2.1690922,0 -0.1225105,0.02582 -0.2484365,0.0514 -0.2798268,0.05685 -0.041142,0.0071 -0.1005865,-0.01799 -0.2129581,-0.09002 -0.4479982,-0.287159 -1.0823061,-0.519336 -1.3154608,-0.481501 -0.070806,0.01149 -0.075879,0.01904 -0.1283175,0.190961 -0.085038,0.278796 -0.1065786,0.421324 -0.1048943,0.694057 0.00125,0.202505 0.012491,0.28947 0.056614,0.438004 l 0.055054,0.18533 -0.084574,0.1003 c -0.2219131,0.263178 -0.4060679,0.675558 -0.4624122,1.035485 -0.033207,0.212125 -0.012902,0.873179 0.034031,1.107942 0.1125627,0.563046 0.3308997,1.0109518 0.6352738,1.3032268 0.2287779,0.219684 0.5977197,0.432898 0.9585269,0.553941 0.1568151,0.05261 0.576248,0.141548 0.7738253,0.164088 l 0.1256641,0.01434 -0.085564,0.108247 c -0.1111549,0.140622 -0.1914751,0.312685 -0.2341263,0.501551 -0.033388,0.147848 -0.036559,0.152527 -0.1257599,0.185563 -0.1967085,0.07285 -0.2995593,0.08899 -0.5748824,0.09022 -0.2820569,0.0013 -0.2874906,3.4e-4 -0.4343263,-0.07334 C 6.2103101,12.020852 6.045868,11.862179 5.8953344,11.628862 5.677289,11.290906 5.3460406,11.052808 5.0528824,11.023317 c -0.1686619,-0.01697 -0.2944049,0.01935 -0.2944049,0.08502 0,0.05003 0.176533,0.228735 0.3320727,0.336156 0.053005,0.03661 0.1487888,0.135479 0.2128528,0.219715 0.104482,0.137382 0.1571335,0.23431 0.3499588,0.644254 0.1057096,0.224737 0.3713655,0.431627 0.6650969,0.517969 0.066464,0.01954 0.2592645,0.04661 0.4284456,0.06017 0.2513137,0.02013 0.3468026,0.01886 0.5218247,-0.007 l 0.2142228,-0.03161 0.00541,0.385501 c 0.010884,0.774999 0.00605,0.816528 -0.1032959,0.888177 -0.057824,0.03789 -0.1754478,0.05745 -0.2536633,0.0422 z"
       id="path1" /></g></svg>
