<?xml version="1.0" encoding="UTF-8" standalone="no"?>
<!-- Created with Inkscape (http://www.inkscape.org/) -->

<svg
   width="11.419175mm"
   height="11.318459mm"
   viewBox="0 0 11.419175 11.318459"
   version="1.1"
   id="svg1"
   xml:space="preserve"
   xmlns:inkscape="http://www.inkscape.org/namespaces/inkscape"
   xmlns:sodipodi="http://sodipodi.sourceforge.net/DTD/sodipodi-0.dtd"
   xmlns="http://www.w3.org/2000/svg"
   xmlns:svg="http://www.w3.org/2000/svg"><sodipodi:namedview
     id="namedview1"
     pagecolor="#ffffff"
     bordercolor="#000000"
     borderopacity="0.25"
     inkscape:showpageshadow="2"
     inkscape:pageopacity="0.0"
     inkscape:pagecheckerboard="0"
     inkscape:deskcolor="#d1d1d1"
     inkscape:document-units="mm" /><defs
     id="defs1" /><g
     inkscape:label="Camada 1"
     inkscape:groupmode="layer"
     id="layer1"
     transform="translate(-18.063391,-3.2060968)"><path
       style="fill:#000000;stroke-width:0.537704"
       d="M 18.57969,14.455192 C 18.368628,14.359172 18.241282,14.23386 18.14677,14.029198 L 18.06339,13.848651 V 8.8581553 3.8676604 l 0.08453,-0.1669506 c 0.09755,-0.1926549 0.251084,-0.3424442 0.442716,-0.4319079 l 0.134317,-0.062705 h 5.048023 5.048022 l 0.162818,0.079957 c 0.187498,0.092076 0.349028,0.2578107 0.437269,0.4486504 l 0.06148,0.1329569 v 4.9904949 c 0,4.8260579 -0.0018,4.9951419 -0.0544,5.1315399 -0.07503,0.194526 -0.230085,0.356181 -0.43458,0.453079 l -0.172582,0.08178 -5.048022,-0.0016 -5.048023,-0.0016 z M 22.133454,9.6203925 V 7.3912088 h -0.776619 -0.776619 v 2.2291837 2.2291835 h 0.776619 0.776619 z m 2.191924,0.8844825 c 0.0094,-1.3269891 0.01036,-1.3468853 0.07594,-1.5105408 0.137073,-0.3420431 0.348468,-0.4805825 0.734044,-0.4810616 0.367838,-4.571e-4 0.563228,0.1410903 0.697743,0.505468 0.04708,0.1275229 0.05321,0.2737391 0.06232,1.4866594 l 0.01011,1.345227 0.660562,-0.0077 0.660562,-0.0077 -0.0015,-1.506497 c -0.0012,-1.2468079 -0.0092,-1.5438446 -0.04626,-1.7231635 -0.08724,-0.422383 -0.227683,-0.6975116 -0.446574,-0.8748721 -0.290699,-0.235545 -0.568631,-0.3140659 -1.118453,-0.3159839 -0.377183,-0.00129 -0.439081,0.00587 -0.647182,0.075162 -0.276373,0.092021 -0.511852,0.2458286 -0.614738,0.4015282 l -0.07559,0.1143933 -0.0082,-0.3072768 -0.0082,-0.3072768 h -0.617445 -0.617445 v 2.2291837 2.2291839 h 0.645385 0.645384 z M 21.687826,6.6620128 c 0.166344,-0.077463 0.314409,-0.2336775 0.395726,-0.4175083 0.08946,-0.2022358 0.06099,-0.4926351 -0.06768,-0.6904144 -0.05398,-0.082976 -0.154393,-0.1883039 -0.223138,-0.234062 -0.550467,-0.3664048 -1.263807,0.06108 -1.204487,0.7218159 0.01636,0.1822009 0.06701,0.2950682 0.200832,0.4474793 0.207014,0.2357767 0.600792,0.3114391 0.898745,0.1726895 z"
       id="path2" /></g></svg>
